<?xml version="1.0" encoding="UTF-8" standalone="no"?>
<!DOCTYPE svg PUBLIC "-//W3C//DTD SVG 1.1//EN"
 "http://www.w3.org/Graphics/SVG/1.1/DTD/svg11.dtd">
<!-- Generated by graphviz version 7.0.0 (20221023.0053)
 -->
<!-- Title: GraphOfConvexSets Pages: 1 -->
<svg width="428pt" height="885pt"
 viewBox="0.00 0.00 428.44 885.44" xmlns="http://www.w3.org/2000/svg" xmlns:xlink="http://www.w3.org/1999/xlink">
<g id="graph0" class="graph" transform="scale(1 1) rotate(0) translate(4 881.44)">
<title>GraphOfConvexSets</title>
<polygon fill="white" stroke="none" points="-4,4 -4,-881.44 424.44,-881.44 424.44,4 -4,4"/>
<!-- v2 -->
<g id="node1" class="node">
<title>v2</title>
<ellipse fill="none" stroke="black" cx="179.44" cy="-850.57" rx="92.76" ry="26.74"/>
<text text-anchor="middle" x="179.44" y="-854.37" font-family="Times,serif" font-size="14.00">start</text>
<text text-anchor="middle" x="179.44" y="-839.37" font-family="Times,serif" font-size="14.00"> x = [0.00 1.00 2.00]</text>
</g>
<!-- v3 -->
<g id="node2" class="node">
<title>v3</title>
<ellipse fill="none" stroke="black" cx="179.44" cy="-685.83" rx="92.76" ry="26.74"/>
<text text-anchor="middle" x="179.44" y="-689.63" font-family="Times,serif" font-size="14.00">M_0_0</text>
<text text-anchor="middle" x="179.44" y="-674.63" font-family="Times,serif" font-size="14.00"> x = [0.00 1.00 2.00]</text>
</g>
<!-- v2&#45;&gt;v3 -->
<g id="edge1" class="edge">
<title>v2&#45;&gt;v3</title>
<path fill="none" stroke="black" d="M179.44,-823.42C179.44,-796.61 179.44,-754.66 179.44,-724.32"/>
<polygon fill="black" stroke="black" points="182.94,-724.43 179.44,-714.43 175.94,-724.43 182.94,-724.43"/>
<text text-anchor="middle" x="250.94" y="-794.5" font-family="Times,serif" font-size="14.00">Equals start</text>
<text text-anchor="middle" x="250.94" y="-779.5" font-family="Times,serif" font-size="14.00">cost = 0.00,</text>
<text text-anchor="middle" x="250.94" y="-764.5" font-family="Times,serif" font-size="14.00">ϕ = 1.00,</text>
<text text-anchor="middle" x="250.94" y="-749.5" font-family="Times,serif" font-size="14.00">ϕ xᵤ = [&#45;0.00 &#160;1.00 &#160;2.00],</text>
<text text-anchor="middle" x="250.94" y="-734.5" font-family="Times,serif" font-size="14.00">ϕ xᵥ = [&#45;0.00 &#160;1.00 &#160;2.00]</text>
</g>
<!-- v4 -->
<g id="node3" class="node">
<title>v4</title>
<ellipse fill="none" stroke="black" cx="179.44" cy="-521.09" rx="92.76" ry="26.74"/>
<text text-anchor="middle" x="179.44" y="-524.89" font-family="Times,serif" font-size="14.00">T_0_0</text>
<text text-anchor="middle" x="179.44" y="-509.89" font-family="Times,serif" font-size="14.00"> x = [2.00 1.00 2.00]</text>
</g>
<!-- v3&#45;&gt;v4 -->
<g id="edge2" class="edge">
<title>v3&#45;&gt;v4</title>
<path fill="none" stroke="black" d="M179.44,-658.68C179.44,-631.87 179.44,-589.92 179.44,-559.58"/>
<polygon fill="black" stroke="black" points="182.94,-559.69 179.44,-549.69 175.94,-559.69 182.94,-559.69"/>
<text text-anchor="middle" x="250.94" y="-629.76" font-family="Times,serif" font-size="14.00">Free move</text>
<text text-anchor="middle" x="250.94" y="-614.76" font-family="Times,serif" font-size="14.00">cost = 2.00,</text>
<text text-anchor="middle" x="250.94" y="-599.76" font-family="Times,serif" font-size="14.00">ϕ = 1.00,</text>
<text text-anchor="middle" x="250.94" y="-584.76" font-family="Times,serif" font-size="14.00">ϕ xᵤ = [&#45;0.00 &#160;1.00 &#160;2.00],</text>
<text text-anchor="middle" x="250.94" y="-569.76" font-family="Times,serif" font-size="14.00">ϕ xᵥ = [2.00 1.00 2.00]</text>
</g>
<!-- v5 -->
<g id="node4" class="node">
<title>v5</title>
<ellipse fill="none" stroke="black" cx="83.44" cy="-356.35" rx="83.38" ry="26.74"/>
<text text-anchor="middle" x="83.44" y="-360.15" font-family="Times,serif" font-size="14.00">M_1_1</text>
<text text-anchor="middle" x="83.44" y="-345.15" font-family="Times,serif" font-size="14.00"> x = [nan nan nan]</text>
</g>
<!-- v4&#45;&gt;v5 -->
<g id="edge3" class="edge">
<title>v4&#45;&gt;v5</title>
<path fill="none" stroke="black" d="M128.52,-498.49C119.29,-492.5 110.64,-485.13 104.44,-476.22 87.9,-452.46 83.09,-419.74 82.18,-394.64"/>
<polygon fill="black" stroke="black" points="85.68,-394.81 82.02,-384.87 78.68,-394.92 85.68,-394.81"/>
<text text-anchor="middle" x="176.44" y="-465.02" font-family="Times,serif" font-size="14.00">Grasp 1</text>
<text text-anchor="middle" x="176.44" y="-450.02" font-family="Times,serif" font-size="14.00">cost = &#45;0.00,</text>
<text text-anchor="middle" x="176.44" y="-435.02" font-family="Times,serif" font-size="14.00">ϕ = &#45;0.00,</text>
<text text-anchor="middle" x="176.44" y="-420.02" font-family="Times,serif" font-size="14.00">ϕ xᵤ = [&#45;0.00 &#45;0.00 &#160;0.00],</text>
<text text-anchor="middle" x="176.44" y="-405.02" font-family="Times,serif" font-size="14.00">ϕ xᵥ = [&#45;0.00 &#45;0.00 &#160;0.00]</text>
</g>
<!-- v6 -->
<g id="node5" class="node">
<title>v6</title>
<ellipse fill="none" stroke="black" cx="277.44" cy="-356.35" rx="92.76" ry="26.74"/>
<text text-anchor="middle" x="277.44" y="-360.15" font-family="Times,serif" font-size="14.00">M_1_2</text>
<text text-anchor="middle" x="277.44" y="-345.15" font-family="Times,serif" font-size="14.00"> x = [2.00 1.00 2.00]</text>
</g>
<!-- v4&#45;&gt;v6 -->
<g id="edge4" class="edge">
<title>v4&#45;&gt;v6</title>
<path fill="none" stroke="black" d="M225.91,-497.55C234.42,-491.63 242.48,-484.53 248.44,-476.22 265.53,-452.37 272.62,-419.65 275.53,-394.58"/>
<polygon fill="black" stroke="black" points="278.99,-395.1 276.47,-384.81 272.03,-394.43 278.99,-395.1"/>
<text text-anchor="middle" x="338.94" y="-465.02" font-family="Times,serif" font-size="14.00">Grasp 2</text>
<text text-anchor="middle" x="338.94" y="-450.02" font-family="Times,serif" font-size="14.00">cost = &#45;0.00,</text>
<text text-anchor="middle" x="338.94" y="-435.02" font-family="Times,serif" font-size="14.00">ϕ = 1.00,</text>
<text text-anchor="middle" x="338.94" y="-420.02" font-family="Times,serif" font-size="14.00">ϕ xᵤ = [2.00 1.00 2.00],</text>
<text text-anchor="middle" x="338.94" y="-405.02" font-family="Times,serif" font-size="14.00">ϕ xᵥ = [2.00 1.00 2.00]</text>
</g>
<!-- v7 -->
<g id="node6" class="node">
<title>v7</title>
<ellipse fill="none" stroke="black" cx="180.44" cy="-191.61" rx="92.76" ry="26.74"/>
<text text-anchor="middle" x="180.44" y="-195.41" font-family="Times,serif" font-size="14.00">M_2_0</text>
<text text-anchor="middle" x="180.44" y="-180.41" font-family="Times,serif" font-size="14.00"> x = [0.00 1.00 0.00]</text>
</g>
<!-- v5&#45;&gt;v7 -->
<g id="edge5" class="edge">
<title>v5&#45;&gt;v7</title>
<path fill="none" stroke="black" d="M81.68,-329.32C81.24,-303.5 84.26,-263.93 103.44,-236.48 107.7,-230.38 113.1,-225.02 119.06,-220.33"/>
<polygon fill="black" stroke="black" points="120.72,-223.44 126.88,-214.82 116.69,-217.72 120.72,-223.44"/>
<text text-anchor="middle" x="175.94" y="-300.28" font-family="Times,serif" font-size="14.00">Move, ungrasp 1</text>
<text text-anchor="middle" x="175.94" y="-285.28" font-family="Times,serif" font-size="14.00">cost = &#45;0.00,</text>
<text text-anchor="middle" x="175.94" y="-270.28" font-family="Times,serif" font-size="14.00">ϕ = 0.00,</text>
<text text-anchor="middle" x="175.94" y="-255.28" font-family="Times,serif" font-size="14.00">ϕ xᵤ = [&#45;0.00 &#45;0.00 &#45;0.00],</text>
<text text-anchor="middle" x="175.94" y="-240.28" font-family="Times,serif" font-size="14.00">ϕ xᵥ = [&#45;0.00 &#45;0.00 &#160;0.00]</text>
</g>
<!-- v6&#45;&gt;v7 -->
<g id="edge6" class="edge">
<title>v6&#45;&gt;v7</title>
<path fill="none" stroke="black" d="M276.58,-329.42C274.55,-303.68 268.15,-264.17 248.44,-236.48 244.68,-231.2 240.07,-226.4 235.03,-222.08"/>
<polygon fill="black" stroke="black" points="237.48,-219.54 227.43,-216.18 233.19,-225.07 237.48,-219.54"/>
<text text-anchor="middle" x="342.94" y="-300.28" font-family="Times,serif" font-size="14.00">Move, ungrasp 2</text>
<text text-anchor="middle" x="342.94" y="-285.28" font-family="Times,serif" font-size="14.00">cost = 2.00,</text>
<text text-anchor="middle" x="342.94" y="-270.28" font-family="Times,serif" font-size="14.00">ϕ = 1.00,</text>
<text text-anchor="middle" x="342.94" y="-255.28" font-family="Times,serif" font-size="14.00">ϕ xᵤ = [2.00 1.00 2.00],</text>
<text text-anchor="middle" x="342.94" y="-240.28" font-family="Times,serif" font-size="14.00">ϕ xᵥ = [&#45;0.00 &#160;1.00 &#45;0.00]</text>
</g>
<!-- v8 -->
<g id="node7" class="node">
<title>v8</title>
<ellipse fill="none" stroke="black" cx="83.44" cy="-26.87" rx="83.38" ry="26.74"/>
<text text-anchor="middle" x="83.44" y="-30.67" font-family="Times,serif" font-size="14.00">T_2_0</text>
<text text-anchor="middle" x="83.44" y="-15.67" font-family="Times,serif" font-size="14.00"> x = [nan nan nan]</text>
</g>
<!-- v7&#45;&gt;v8 -->
<g id="edge7" class="edge">
<title>v7&#45;&gt;v8</title>
<path fill="none" stroke="black" d="M143.52,-166.66C136.47,-160.8 129.67,-154.08 124.44,-146.74 107.05,-122.34 96.52,-89.93 90.49,-65.12"/>
<polygon fill="black" stroke="black" points="93.92,-64.41 88.3,-55.44 87.1,-65.96 93.92,-64.41"/>
<text text-anchor="middle" x="189.94" y="-135.54" font-family="Times,serif" font-size="14.00">Free move</text>
<text text-anchor="middle" x="189.94" y="-120.54" font-family="Times,serif" font-size="14.00">cost = 0.00,</text>
<text text-anchor="middle" x="189.94" y="-105.54" font-family="Times,serif" font-size="14.00">ϕ = 0.00,</text>
<text text-anchor="middle" x="189.94" y="-90.54" font-family="Times,serif" font-size="14.00">ϕ xᵤ = [0.00 0.00 0.00],</text>
<text text-anchor="middle" x="189.94" y="-75.54" font-family="Times,serif" font-size="14.00">ϕ xᵥ = [0.00 0.00 0.00]</text>
</g>
<!-- v9 -->
<g id="node8" class="node">
<title>v9</title>
<ellipse fill="none" stroke="black" cx="277.44" cy="-26.87" rx="92.76" ry="26.74"/>
<text text-anchor="middle" x="277.44" y="-30.67" font-family="Times,serif" font-size="14.00">target</text>
<text text-anchor="middle" x="277.44" y="-15.67" font-family="Times,serif" font-size="14.00"> x = [2.00 1.00 0.00]</text>
</g>
<!-- v7&#45;&gt;v9 -->
<g id="edge8" class="edge">
<title>v7&#45;&gt;v9</title>
<path fill="none" stroke="black" d="M231.3,-168.97C240.53,-162.99 249.2,-155.63 255.44,-146.74 272.1,-123.02 277.19,-90.29 278.34,-65.18"/>
<polygon fill="black" stroke="black" points="281.83,-65.49 278.58,-55.4 274.83,-65.31 281.83,-65.49"/>
<text text-anchor="middle" x="348.94" y="-135.54" font-family="Times,serif" font-size="14.00">Free move to target</text>
<text text-anchor="middle" x="348.94" y="-120.54" font-family="Times,serif" font-size="14.00">cost = 2.00,</text>
<text text-anchor="middle" x="348.94" y="-105.54" font-family="Times,serif" font-size="14.00">ϕ = 1.00,</text>
<text text-anchor="middle" x="348.94" y="-90.54" font-family="Times,serif" font-size="14.00">ϕ xᵤ = [&#45;0.00 &#160;1.00 &#160;0.00],</text>
<text text-anchor="middle" x="348.94" y="-75.54" font-family="Times,serif" font-size="14.00">ϕ xᵥ = [2.00 1.00 0.00]</text>
</g>
<!-- \n -->
<g id="node9" class="node">
<title>\n</title>
<ellipse fill="none" stroke="black" cx="317.44" cy="-850.57" rx="27" ry="18"/>
</g>
</g>
</svg>
