<?xml version="1.0" encoding="UTF-8" standalone="no"?>
<!DOCTYPE svg PUBLIC "-//W3C//DTD SVG 1.1//EN"
 "http://www.w3.org/Graphics/SVG/1.1/DTD/svg11.dtd">
<!-- Generated by graphviz version 7.0.0 (20221023.0053)
 -->
<!-- Title: GraphOfConvexSets Pages: 1 -->
<svg width="521pt" height="566pt"
 viewBox="0.00 0.00 520.60 566.00" xmlns="http://www.w3.org/2000/svg" xmlns:xlink="http://www.w3.org/1999/xlink">
<g id="graph0" class="graph" transform="scale(1 1) rotate(0) translate(4 562)">
<title>GraphOfConvexSets</title>
<polygon fill="white" stroke="none" points="-4,4 -4,-562 516.6,-562 516.6,4 -4,4"/>
<!-- v28 -->
<g id="node1" class="node">
<title>v28</title>
<ellipse fill="none" stroke="black" cx="113.6" cy="-540" rx="27" ry="18"/>
<text text-anchor="middle" x="113.6" y="-536.3" font-family="Times,serif" font-size="14.00">start</text>
</g>
<!-- v29 -->
<g id="node2" class="node">
<title>v29</title>
<ellipse fill="none" stroke="black" cx="113.6" cy="-453" rx="28.7" ry="18"/>
<text text-anchor="middle" x="113.6" y="-449.3" font-family="Times,serif" font-size="14.00">BBX</text>
</g>
<!-- v28&#45;&gt;v29 -->
<g id="edge1" class="edge">
<title>v28&#45;&gt;v29</title>
<path fill="none" stroke="black" d="M113.6,-521.8C113.6,-510.58 113.6,-495.67 113.6,-482.69"/>
<polygon fill="black" stroke="black" points="117.1,-482.98 113.6,-472.98 110.1,-482.98 117.1,-482.98"/>
<text text-anchor="middle" x="142.6" y="-492.8" font-family="Times,serif" font-size="14.00">start_BBX</text>
</g>
<!-- v31 -->
<g id="node3" class="node">
<title>v31</title>
<ellipse fill="none" stroke="black" cx="28.6" cy="-366" rx="28.7" ry="18"/>
<text text-anchor="middle" x="28.6" y="-362.3" font-family="Times,serif" font-size="14.00">BLX</text>
</g>
<!-- v29&#45;&gt;v31 -->
<g id="edge2" class="edge">
<title>v29&#45;&gt;v31</title>
<path fill="none" stroke="black" d="M88.51,-443.7C74.83,-438.06 58.5,-429.35 47.6,-417 42.15,-410.83 38.19,-402.93 35.35,-395.24"/>
<polygon fill="black" stroke="black" points="38.73,-394.3 32.4,-385.8 32.05,-396.39 38.73,-394.3"/>
<text text-anchor="middle" x="78.6" y="-405.8" font-family="Times,serif" font-size="14.00">BBX_BLX</text>
</g>
<!-- v32 -->
<g id="node4" class="node">
<title>v32</title>
<ellipse fill="none" stroke="black" cx="113.6" cy="-366" rx="28.7" ry="18"/>
<text text-anchor="middle" x="113.6" y="-362.3" font-family="Times,serif" font-size="14.00">BRX</text>
</g>
<!-- v29&#45;&gt;v32 -->
<g id="edge3" class="edge">
<title>v29&#45;&gt;v32</title>
<path fill="none" stroke="black" d="M113.6,-434.8C113.6,-423.58 113.6,-408.67 113.6,-395.69"/>
<polygon fill="black" stroke="black" points="117.1,-395.98 113.6,-385.98 110.1,-395.98 117.1,-395.98"/>
<text text-anchor="middle" x="145.1" y="-405.8" font-family="Times,serif" font-size="14.00">BBX_BRX</text>
</g>
<!-- v38 -->
<g id="node6" class="node">
<title>v38</title>
<ellipse fill="none" stroke="black" cx="242.6" cy="-366" rx="28.7" ry="18"/>
<text text-anchor="middle" x="242.6" y="-362.3" font-family="Times,serif" font-size="14.00">RBX</text>
</g>
<!-- v29&#45;&gt;v38 -->
<g id="edge6" class="edge">
<title>v29&#45;&gt;v38</title>
<path fill="none" stroke="black" d="M136.25,-441.56C149.53,-435.09 166.44,-426.28 180.6,-417 193.52,-408.53 206.97,-397.93 218.03,-388.68"/>
<polygon fill="black" stroke="black" points="220.2,-391.42 225.54,-382.27 215.66,-386.1 220.2,-391.42"/>
<text text-anchor="middle" x="231.1" y="-405.8" font-family="Times,serif" font-size="14.00">BBX_RBX</text>
</g>
<!-- v33 -->
<g id="node5" class="node">
<title>v33</title>
<ellipse fill="none" stroke="black" cx="112.6" cy="-279" rx="29.5" ry="18"/>
<text text-anchor="middle" x="112.6" y="-275.3" font-family="Times,serif" font-size="14.00">BAX</text>
</g>
<!-- v31&#45;&gt;v33 -->
<g id="edge4" class="edge">
<title>v31&#45;&gt;v33</title>
<path fill="none" stroke="black" d="M31.16,-347.64C33.45,-337.2 37.72,-324.19 45.6,-315 53.75,-305.49 65.14,-298.2 76.22,-292.8"/>
<polygon fill="black" stroke="black" points="77.52,-296.06 85.25,-288.81 74.69,-289.65 77.52,-296.06"/>
<text text-anchor="middle" x="77.1" y="-318.8" font-family="Times,serif" font-size="14.00">BLX_BAX</text>
</g>
<!-- v32&#45;&gt;v33 -->
<g id="edge5" class="edge">
<title>v32&#45;&gt;v33</title>
<path fill="none" stroke="black" d="M113.4,-347.8C113.26,-336.58 113.09,-321.67 112.93,-308.69"/>
<polygon fill="black" stroke="black" points="116.44,-308.94 112.82,-298.98 109.44,-309.02 116.44,-308.94"/>
<text text-anchor="middle" x="144.6" y="-318.8" font-family="Times,serif" font-size="14.00">BRX_BAX</text>
</g>
<!-- v42 -->
<g id="node9" class="node">
<title>v42</title>
<ellipse fill="none" stroke="black" cx="220.6" cy="-192" rx="29.5" ry="18"/>
<text text-anchor="middle" x="220.6" y="-188.3" font-family="Times,serif" font-size="14.00">RAX</text>
</g>
<!-- v33&#45;&gt;v42 -->
<g id="edge11" class="edge">
<title>v33&#45;&gt;v42</title>
<path fill="none" stroke="black" d="M114.7,-260.79C116.82,-250.14 121.08,-236.86 129.6,-228 143.23,-213.82 163.24,-205.3 181.03,-200.23"/>
<polygon fill="black" stroke="black" points="181.72,-203.66 190.55,-197.8 180,-196.88 181.72,-203.66"/>
<text text-anchor="middle" x="161.6" y="-231.8" font-family="Times,serif" font-size="14.00">BAX_RAX</text>
</g>
<!-- v40 -->
<g id="node7" class="node">
<title>v40</title>
<ellipse fill="none" stroke="black" cx="199.6" cy="-279" rx="28.7" ry="18"/>
<text text-anchor="middle" x="199.6" y="-275.3" font-family="Times,serif" font-size="14.00">RLX</text>
</g>
<!-- v38&#45;&gt;v40 -->
<g id="edge7" class="edge">
<title>v38&#45;&gt;v40</title>
<path fill="none" stroke="black" d="M222.19,-352.87C214.3,-347.02 206.09,-339.26 201.6,-330 198.4,-323.41 197.09,-315.74 196.77,-308.42"/>
<polygon fill="black" stroke="black" points="200.27,-308.61 196.96,-298.54 193.27,-308.48 200.27,-308.61"/>
<text text-anchor="middle" x="232.6" y="-318.8" font-family="Times,serif" font-size="14.00">RBX_RLX</text>
</g>
<!-- v41 -->
<g id="node8" class="node">
<title>v41</title>
<ellipse fill="none" stroke="black" cx="285.6" cy="-279" rx="28.7" ry="18"/>
<text text-anchor="middle" x="285.6" y="-275.3" font-family="Times,serif" font-size="14.00">RRX</text>
</g>
<!-- v38&#45;&gt;v41 -->
<g id="edge8" class="edge">
<title>v38&#45;&gt;v41</title>
<path fill="none" stroke="black" d="M252.86,-348.86C256.42,-343.01 260.34,-336.29 263.6,-330 267.35,-322.76 271.06,-314.74 274.34,-307.28"/>
<polygon fill="black" stroke="black" points="277.46,-308.87 278.18,-298.3 271.03,-306.12 277.46,-308.87"/>
<text text-anchor="middle" x="302.1" y="-318.8" font-family="Times,serif" font-size="14.00">RBX_RRX</text>
</g>
<!-- v48 -->
<g id="node10" class="node">
<title>v48</title>
<ellipse fill="none" stroke="black" cx="372.6" cy="-279" rx="29.5" ry="18"/>
<text text-anchor="middle" x="372.6" y="-275.3" font-family="Times,serif" font-size="14.00">ABX</text>
</g>
<!-- v38&#45;&gt;v48 -->
<g id="edge12" class="edge">
<title>v38&#45;&gt;v48</title>
<path fill="none" stroke="black" d="M269.73,-359.64C290,-354.59 317.55,-345.45 337.6,-330 345.92,-323.59 353.05,-314.64 358.66,-306.08"/>
<polygon fill="black" stroke="black" points="361.56,-308.05 363.74,-297.68 355.57,-304.42 361.56,-308.05"/>
<text text-anchor="middle" x="383.6" y="-318.8" font-family="Times,serif" font-size="14.00">RBX_ABX</text>
</g>
<!-- v40&#45;&gt;v42 -->
<g id="edge9" class="edge">
<title>v40&#45;&gt;v42</title>
<path fill="none" stroke="black" d="M197.86,-260.57C197.4,-250.82 197.68,-238.54 200.6,-228 201.43,-225 202.57,-222 203.89,-219.07"/>
<polygon fill="black" stroke="black" points="206.93,-220.8 208.52,-210.32 200.75,-217.52 206.93,-220.8"/>
<text text-anchor="middle" x="232.1" y="-231.8" font-family="Times,serif" font-size="14.00">RLX_RAX</text>
</g>
<!-- v41&#45;&gt;v42 -->
<g id="edge10" class="edge">
<title>v41&#45;&gt;v42</title>
<path fill="none" stroke="black" d="M280.45,-261.18C276.8,-250.94 271.18,-237.96 263.6,-228 259.41,-222.51 254.19,-217.34 248.85,-212.76"/>
<polygon fill="black" stroke="black" points="251.09,-210.06 241.09,-206.57 246.73,-215.54 251.09,-210.06"/>
<text text-anchor="middle" x="303.6" y="-231.8" font-family="Times,serif" font-size="14.00">RRX_RAX</text>
</g>
<!-- v52 -->
<g id="node13" class="node">
<title>v52</title>
<ellipse fill="none" stroke="black" cx="372.6" cy="-105" rx="29.8" ry="18"/>
<text text-anchor="middle" x="372.6" y="-101.3" font-family="Times,serif" font-size="14.00">AAX</text>
</g>
<!-- v42&#45;&gt;v52 -->
<g id="edge17" class="edge">
<title>v42&#45;&gt;v52</title>
<path fill="none" stroke="black" d="M240.48,-178.46C257.15,-168.09 281.67,-153.14 303.6,-141 315.2,-134.57 328.12,-127.89 339.62,-122.12"/>
<polygon fill="black" stroke="black" points="340.95,-125.36 348.34,-117.77 337.83,-119.1 340.95,-125.36"/>
<text text-anchor="middle" x="336.1" y="-144.8" font-family="Times,serif" font-size="14.00">RAX_AAX</text>
</g>
<!-- v50 -->
<g id="node11" class="node">
<title>v50</title>
<ellipse fill="none" stroke="black" cx="372.6" cy="-192" rx="28.7" ry="18"/>
<text text-anchor="middle" x="372.6" y="-188.3" font-family="Times,serif" font-size="14.00">ALX</text>
</g>
<!-- v48&#45;&gt;v50 -->
<g id="edge13" class="edge">
<title>v48&#45;&gt;v50</title>
<path fill="none" stroke="black" d="M372.6,-260.8C372.6,-249.58 372.6,-234.67 372.6,-221.69"/>
<polygon fill="black" stroke="black" points="376.1,-221.98 372.6,-211.98 369.1,-221.98 376.1,-221.98"/>
<text text-anchor="middle" x="404.6" y="-231.8" font-family="Times,serif" font-size="14.00">ABX_ALX</text>
</g>
<!-- v51 -->
<g id="node12" class="node">
<title>v51</title>
<ellipse fill="none" stroke="black" cx="459.6" cy="-192" rx="29.5" ry="18"/>
<text text-anchor="middle" x="459.6" y="-188.3" font-family="Times,serif" font-size="14.00">ARX</text>
</g>
<!-- v48&#45;&gt;v51 -->
<g id="edge14" class="edge">
<title>v48&#45;&gt;v51</title>
<path fill="none" stroke="black" d="M397.7,-269.13C410.98,-263.39 426.73,-254.77 437.6,-243 443.46,-236.65 447.93,-228.5 451.27,-220.62"/>
<polygon fill="black" stroke="black" points="454.53,-221.89 454.72,-211.3 447.96,-219.46 454.53,-221.89"/>
<text text-anchor="middle" x="479.6" y="-231.8" font-family="Times,serif" font-size="14.00">ABX_ARX</text>
</g>
<!-- v50&#45;&gt;v52 -->
<g id="edge15" class="edge">
<title>v50&#45;&gt;v52</title>
<path fill="none" stroke="black" d="M372.6,-173.8C372.6,-162.58 372.6,-147.67 372.6,-134.69"/>
<polygon fill="black" stroke="black" points="376.1,-134.98 372.6,-124.98 369.1,-134.98 376.1,-134.98"/>
<text text-anchor="middle" x="404.6" y="-144.8" font-family="Times,serif" font-size="14.00">ALX_AAX</text>
</g>
<!-- v51&#45;&gt;v52 -->
<g id="edge16" class="edge">
<title>v51&#45;&gt;v52</title>
<path fill="none" stroke="black" d="M455.24,-174.12C451.84,-163.6 446.22,-150.34 437.6,-141 429.51,-132.24 418.72,-125.23 408.26,-119.85"/>
<polygon fill="black" stroke="black" points="409.92,-116.76 399.39,-115.65 406.93,-123.09 409.92,-116.76"/>
<text text-anchor="middle" x="480.1" y="-144.8" font-family="Times,serif" font-size="14.00">ARX_AAX</text>
</g>
<!-- v58 -->
<g id="node14" class="node">
<title>v58</title>
<ellipse fill="none" stroke="black" cx="372.6" cy="-18" rx="30.59" ry="18"/>
<text text-anchor="middle" x="372.6" y="-14.3" font-family="Times,serif" font-size="14.00">target</text>
</g>
<!-- v52&#45;&gt;v58 -->
<g id="edge18" class="edge">
<title>v52&#45;&gt;v58</title>
<path fill="none" stroke="black" d="M372.6,-86.8C372.6,-75.58 372.6,-60.67 372.6,-47.69"/>
<polygon fill="black" stroke="black" points="376.1,-47.98 372.6,-37.98 369.1,-47.98 376.1,-47.98"/>
<text text-anchor="middle" x="406.1" y="-57.8" font-family="Times,serif" font-size="14.00">AAX_target</text>
</g>
<!-- \n -->
<g id="node15" class="node">
<title>\n</title>
<ellipse fill="none" stroke="black" cx="185.6" cy="-540" rx="27" ry="18"/>
</g>
</g>
</svg>
