<?xml version="1.0" encoding="UTF-8" standalone="no"?>
<!DOCTYPE svg PUBLIC "-//W3C//DTD SVG 1.1//EN"
 "http://www.w3.org/Graphics/SVG/1.1/DTD/svg11.dtd">
<!-- Generated by graphviz version 7.0.0 (20221023.0053)
 -->
<!-- Title: GraphOfConvexSets Pages: 1 -->
<svg width="138pt" height="218pt"
 viewBox="0.00 0.00 137.55 218.00" xmlns="http://www.w3.org/2000/svg" xmlns:xlink="http://www.w3.org/1999/xlink">
<g id="graph0" class="graph" transform="scale(1 1) rotate(0) translate(4 214)">
<title>GraphOfConvexSets</title>
<polygon fill="white" stroke="none" points="-4,4 -4,-214 133.55,-214 133.55,4 -4,4"/>
<!-- v2 -->
<g id="node1" class="node">
<title>v2</title>
<ellipse fill="none" stroke="black" cx="30.55" cy="-192" rx="27" ry="18"/>
<text text-anchor="middle" x="30.55" y="-188.3" font-family="Times,serif" font-size="14.00">start</text>
</g>
<!-- v4 -->
<g id="node3" class="node">
<title>v4</title>
<ellipse fill="none" stroke="black" cx="30.55" cy="-105" rx="29.8" ry="18"/>
<text text-anchor="middle" x="30.55" y="-101.3" font-family="Times,serif" font-size="14.00">XXX</text>
</g>
<!-- v2&#45;&gt;v4 -->
<g id="edge1" class="edge">
<title>v2&#45;&gt;v4</title>
<path fill="none" stroke="black" d="M30.55,-173.8C30.55,-162.58 30.55,-147.67 30.55,-134.69"/>
<polygon fill="black" stroke="black" points="34.05,-134.98 30.55,-124.98 27.05,-134.98 34.05,-134.98"/>
<text text-anchor="middle" x="60.55" y="-144.8" font-family="Times,serif" font-size="14.00">start_XXX</text>
</g>
<!-- v3 -->
<g id="node2" class="node">
<title>v3</title>
<ellipse fill="none" stroke="black" cx="30.55" cy="-18" rx="30.59" ry="18"/>
<text text-anchor="middle" x="30.55" y="-14.3" font-family="Times,serif" font-size="14.00">target</text>
</g>
<!-- v4&#45;&gt;v3 -->
<g id="edge2" class="edge">
<title>v4&#45;&gt;v3</title>
<path fill="none" stroke="black" d="M30.55,-86.8C30.55,-75.58 30.55,-60.67 30.55,-47.69"/>
<polygon fill="black" stroke="black" points="34.05,-47.98 30.55,-37.98 27.05,-47.98 34.05,-47.98"/>
<text text-anchor="middle" x="64.05" y="-57.8" font-family="Times,serif" font-size="14.00">XXX_target</text>
</g>
<!-- \n -->
<g id="node4" class="node">
<title>\n</title>
<ellipse fill="none" stroke="black" cx="102.55" cy="-192" rx="27" ry="18"/>
</g>
</g>
</svg>
