<?xml version="1.0" encoding="UTF-8" standalone="no"?>
<!DOCTYPE svg PUBLIC "-//W3C//DTD SVG 1.1//EN"
 "http://www.w3.org/Graphics/SVG/1.1/DTD/svg11.dtd">
<!-- Generated by graphviz version 7.0.0 (20221023.0053)
 -->
<!-- Title: GraphOfConvexSets Pages: 1 -->
<svg width="179pt" height="392pt"
 viewBox="0.00 0.00 178.60 392.00" xmlns="http://www.w3.org/2000/svg" xmlns:xlink="http://www.w3.org/1999/xlink">
<g id="graph0" class="graph" transform="scale(1 1) rotate(0) translate(4 388)">
<title>GraphOfConvexSets</title>
<polygon fill="white" stroke="none" points="-4,4 -4,-388 174.6,-388 174.6,4 -4,4"/>
<!-- v7 -->
<g id="node1" class="node">
<title>v7</title>
<ellipse fill="none" stroke="black" cx="71.6" cy="-366" rx="27" ry="18"/>
<text text-anchor="middle" x="71.6" y="-362.3" font-family="Times,serif" font-size="14.00">start</text>
</g>
<!-- v8 -->
<g id="node2" class="node">
<title>v8</title>
<ellipse fill="none" stroke="black" cx="71.6" cy="-279" rx="29.5" ry="18"/>
<text text-anchor="middle" x="71.6" y="-275.3" font-family="Times,serif" font-size="14.00">BXX</text>
</g>
<!-- v7&#45;&gt;v8 -->
<g id="edge1" class="edge">
<title>v7&#45;&gt;v8</title>
<path fill="none" stroke="black" d="M71.6,-347.8C71.6,-336.58 71.6,-321.67 71.6,-308.69"/>
<polygon fill="black" stroke="black" points="75.1,-308.98 71.6,-298.98 68.1,-308.98 75.1,-308.98"/>
<text text-anchor="middle" x="101.1" y="-318.8" font-family="Times,serif" font-size="14.00">start_BXX</text>
</g>
<!-- v10 -->
<g id="node3" class="node">
<title>v10</title>
<ellipse fill="none" stroke="black" cx="28.6" cy="-192" rx="28.7" ry="18"/>
<text text-anchor="middle" x="28.6" y="-188.3" font-family="Times,serif" font-size="14.00">LXX</text>
</g>
<!-- v8&#45;&gt;v10 -->
<g id="edge2" class="edge">
<title>v8&#45;&gt;v10</title>
<path fill="none" stroke="black" d="M50.61,-266.02C42.51,-260.2 34.12,-252.41 29.6,-243 26.43,-236.4 25.24,-228.73 25.06,-221.4"/>
<polygon fill="black" stroke="black" points="28.56,-221.67 25.47,-211.53 21.56,-221.38 28.56,-221.67"/>
<text text-anchor="middle" x="61.6" y="-231.8" font-family="Times,serif" font-size="14.00">BXX_LXX</text>
</g>
<!-- v11 -->
<g id="node4" class="node">
<title>v11</title>
<ellipse fill="none" stroke="black" cx="115.6" cy="-192" rx="29.5" ry="18"/>
<text text-anchor="middle" x="115.6" y="-188.3" font-family="Times,serif" font-size="14.00">RXX</text>
</g>
<!-- v8&#45;&gt;v11 -->
<g id="edge3" class="edge">
<title>v8&#45;&gt;v11</title>
<path fill="none" stroke="black" d="M82.4,-261.91C86.14,-256.07 90.23,-249.34 93.6,-243 97.42,-235.8 101.16,-227.79 104.44,-220.33"/>
<polygon fill="black" stroke="black" points="107.56,-221.92 108.27,-211.35 101.12,-219.17 107.56,-221.92"/>
<text text-anchor="middle" x="133.6" y="-231.8" font-family="Times,serif" font-size="14.00">BXX_RXX</text>
</g>
<!-- v12 -->
<g id="node5" class="node">
<title>v12</title>
<ellipse fill="none" stroke="black" cx="71.6" cy="-105" rx="29.8" ry="18"/>
<text text-anchor="middle" x="71.6" y="-101.3" font-family="Times,serif" font-size="14.00">AXX</text>
</g>
<!-- v10&#45;&gt;v12 -->
<g id="edge4" class="edge">
<title>v10&#45;&gt;v12</title>
<path fill="none" stroke="black" d="M25.53,-173.98C24.53,-163.91 24.71,-151.17 29.6,-141 32.49,-134.97 36.98,-129.61 41.96,-125"/>
<polygon fill="black" stroke="black" points="43.87,-127.96 49.43,-118.94 39.46,-122.52 43.87,-127.96"/>
<text text-anchor="middle" x="61.6" y="-144.8" font-family="Times,serif" font-size="14.00">LXX_AXX</text>
</g>
<!-- v11&#45;&gt;v12 -->
<g id="edge5" class="edge">
<title>v11&#45;&gt;v12</title>
<path fill="none" stroke="black" d="M108.86,-174.04C104.79,-164.22 99.29,-151.72 93.6,-141 91.97,-137.93 90.17,-134.77 88.32,-131.66"/>
<polygon fill="black" stroke="black" points="91.43,-130.04 83.2,-123.38 85.48,-133.72 91.43,-130.04"/>
<text text-anchor="middle" x="134.1" y="-144.8" font-family="Times,serif" font-size="14.00">RXX_AXX</text>
</g>
<!-- v17 -->
<g id="node6" class="node">
<title>v17</title>
<ellipse fill="none" stroke="black" cx="71.6" cy="-18" rx="30.59" ry="18"/>
<text text-anchor="middle" x="71.6" y="-14.3" font-family="Times,serif" font-size="14.00">target</text>
</g>
<!-- v12&#45;&gt;v17 -->
<g id="edge6" class="edge">
<title>v12&#45;&gt;v17</title>
<path fill="none" stroke="black" d="M71.6,-86.8C71.6,-75.58 71.6,-60.67 71.6,-47.69"/>
<polygon fill="black" stroke="black" points="75.1,-47.98 71.6,-37.98 68.1,-47.98 75.1,-47.98"/>
<text text-anchor="middle" x="105.1" y="-57.8" font-family="Times,serif" font-size="14.00">AXX_target</text>
</g>
<!-- \n -->
<g id="node7" class="node">
<title>\n</title>
<ellipse fill="none" stroke="black" cx="143.6" cy="-366" rx="27" ry="18"/>
</g>
</g>
</svg>
